/* XPM */
static char *result[] = {
/* columns rows colors chars-per-pixel */
"64 64 184 2 ",
"   c #000000",
".  c #0F0F00",
"X  c #111100",
"o  c #191900",
"O  c #242400",
"+  c #363500",
"@  c #3B3A00",
"#  c #25251F",
"$  c #2B2B1E",
"%  c #34341D",
"&  c #3B3B1C",
"*  c #00003F",
"=  c #0F0F3C",
"-  c #10103B",
";  c #202020",
":  c #2C2C2C",
">  c #262537",
",  c #302F35",
"<  c #373633",
"1  c #3E3D31",
"2  c gray22",
"3  c #595800",
"4  c #43431B",
"5  c #5F5E16",
"6  c #525218",
"7  c #6D6C00",
"8  c #6E6D14",
"9  c #4B4A2E",
"0  c #55542C",
"q  c #6D6C35",
"w  c #000040",
"e  c #0F0F47",
"r  c #00004C",
"t  c #1E1E49",
"y  c #020256",
"u  c #0F0F52",
"i  c #000058",
"p  c #0F0F5D",
"a  c #101052",
"s  c #10105D",
"d  c #1C1C5A",
"f  c #23234D",
"g  c #28284B",
"h  c #373647",
"j  c #232357",
"k  c #2C2B55",
"l  c #373651",
"z  c #000064",
"x  c #06066C",
"c  c #0F0F69",
"v  c #18186B",
"b  c #000070",
"n  c #0F0F74",
"m  c #00007C",
"M  c #0F0F7F",
"N  c #101074",
"B  c MidnightBlue",
"V  c #18187C",
"C  c #232262",
"Z  c #25256C",
"A  c #302F68",
"S  c #363565",
"D  c #39386F",
"F  c #242477",
"G  c #282776",
"H  c #37367D",
"J  c #3D3C79",
"K  c #45444C",
"L  c #55544C",
"P  c #47465A",
"I  c gray33",
"U  c #6D6C4D",
"Y  c #414161",
"T  c #4A4973",
"R  c #4D4C7B",
"E  c #55547F",
"W  c #676663",
"Q  c #6D6C67",
"!  c #6D6C6F",
"~  c #706F66",
"^  c #7A7868",
"/  c #666574",
"(  c #6D6C77",
")  c #7E7C73",
"_  c #817F00",
"`  c #807F4B",
"'  c #8F8D0E",
"]  c #979500",
"[  c #9E9C00",
"{  c #9C9A0B",
"}  c #838210",
"|  c #97951A",
" . c #9E9C18",
".. c #A09F00",
"X. c #A8A600",
"o. c #A5A309",
"O. c #ABA908",
"+. c #B1AE07",
"@. c #B3B006",
"#. c #BCB908",
"$. c #ACA91E",
"%. c #B8B51C",
"&. c #979526",
"*. c #9E9C23",
"=. c #97952C",
"-. c #9E9C29",
";. c #9C9A37",
":. c #9E9C34",
">. c #979539",
",. c #A19F33",
"<. c #A4A325",
"1. c #AAA829",
"2. c #B0AE25",
"3. c #BCBA25",
"4. c #B7B533",
"5. c #C0BD0D",
"6. c #C6C300",
"7. c #CCC903",
"8. c #CAC809",
"9. c #D5D200",
"0. c #D9D608",
"q. c #D9D60F",
"w. c #C5C213",
"e. c #D1CE16",
"r. c #D9D618",
"t. c #D9D51A",
"y. c #E3DF0A",
"u. c #E1DE13",
"i. c #E5E200",
"p. c #EAE600",
"a. c #EEEA02",
"s. c #E7E40E",
"d. c #F3EF03",
"f. c #F5F100",
"g. c #F9F600",
"h. c #FFFB00",
"j. c #E4E112",
"k. c #C6C326",
"l. c #C8C62C",
"z. c #D6D222",
"x. c #979546",
"c. c #9E9C42",
"v. c #97954C",
"b. c #9E9C4C",
"n. c #979552",
"m. c #9E9C53",
"M. c #97955A",
"N. c #AEAB46",
"B. c #838264",
"V. c #888664",
"C. c #010187",
"Z. c #000088",
"A. c #0F0F8E",
"S. c #10108E",
"D. c #19198A",
"F. c #020295",
"G. c #090991",
"H. c #000098",
"J. c #0F0F9A",
"K. c #101099",
"L. c #1D1D9E",
"P. c #292884",
"I. c #373687",
"U. c #3A3986",
"Y. c #252590",
"T. c #373691",
"R. c #0000A4",
"E. c #0E0EA5",
"W. c #0303AC",
"Q. c #1010A4",
"!. c #1919AB",
"~. c #0000B0",
"^. c #0F0FB0",
"/. c #0000BC",
"(. c #1010B0",
"). c #1010BB",
"_. c #403F95",
"`. c #6D6C87",
"'. c #6D6C8F",
"]. c #0606C1",
"[. c #0000C8",
"{. c #0000D4",
"}. c #0000E0",
"|. c #4040FC",
/* pixels */
"2 b m m m m m m m m m m m m m m m m m m m b 2 2 Z.Z.Z.Z.Z.Z.Z.Z.Z.Z.Z.Z.Z.Z.Z.Z.Z.Z.Z.Z.Z.Z.Z.Z.Z.Z.Z.Z.2 2 b m m m m m m m b : ",
"; R.R.R.R.R.R.R.R.R.R.R.R.R.R.R.R.R.R.R.R.R.; ; /./././././././././././././././././././././././././././.; ; ~.~.~.~.~.~.~.~.~.# ",
"  R.R.R.Z.R.m R.R.H.m H.H.m H.H.m R.m b b i   ; /.R./.~.m R.].H.b b H.Z.R.R.Z.b Z.R./.R.Z.H.R././.R.H.b   ; ~./.R.H.R.~.~.H.m   ",
"  R.H.m Z.H.H.H.m m R.H.R.z H.H.m b m m b z   ; /./.R.H.H.H.b H.i b i i m R.R.z b b z b b i b Z.Z.b z b   ; ~.~.R.R.m H.R.R.i   ",
"  R.Z.R.b [.[.H.m m m F.V G Z j f Z C f f j O 4 O O O O O O O O O O O O O O O O O O O O O O O             ; ~.R.~././.~.R.m m   ",
"  R.Z.m R.[.[.z m m m Y.r.f.d.f.d.d.f.d.f.f.f.f.d.d.d.d.d.d.d.d.d.d.d.d.d.d.d.d.d.d.d.f.f.f.f.5 ; ; ; ; ; ; ~./.R.~.R.m m z i   ",
"  R.H.H.~.~.R.R.R.H.R.Y.j.h.h.h.h.h.h.h.h.h.h.h.h.h.h.h.h.h.h.h.h.h.h.h.h.h.h.h.h.h.h.h.h.h.h.R R.H.H.z ; ; ~.H.H.R.m Z.Z.z z   ",
"  R.R.H.R.~.W.R.H.m z ~ g.h.h.h.h.h.h.h.h.h.h.h.h.h.h.h.h.h.h.h.h.h.h.h.h.h.h.h.h.h.h.h.h.h.h.T C.F.m z   ; ~.H.H.R.b Z.Z.Z.z   ",
"  R.H.m H.R.R.Z.H.m G.` h.h.h.h.h.h.h.h.h.h.h.h.h.h.h.h.h.h.h.h.h.h.h.h.h.h.h.h.h.h.h.h.h.h.h.T F.m m z   ; ~./.R.H.R.R.Z.Z.w   ",
"  R.Z.Z.Z.R.m m m R.H.U h.h.h.q.L S S S h < + 6 I.T.T.T.H H H T.I.I.I.I.H D l S S S l + 6 I.I.G.m m i i   ; /.m m H.R.R.H.i w   ",
"  H.m Z.R.Z.Z.b H.R.R.L h.h.h.q.k z m m i *   ; R./.~.W.W.H.F.~././.R.R.z z Z.m m z i   ; R.R.H.m R.m i   ; /.m /.R.m H.H.i w   ",
"  H.Z.H.m m R.Z.z m i P h.h.h.e.< i * w z *   ; R./.R.R.~.~.~.~./.~.~.R.z z b R.z z w   # R.m Z.H.m i i   ; /./.m m z z m m w   ",
"  H.m H.m z Z.Z.m z m K g.h.h.q.P * * w z w   ; R.~.R.R.H./.H.H.R.~.~.R.H.H.m m i i z   ; R.Z.Z.Z.b b z   ; /.m b z m z m m w   ",
"  H.H.m m m b z i i z Y f.h.h.0.9 b w z i w   ; R.~.}.[.Z.Z.H.H.Z.m m m Z.H.Z.m z z w   ; R.R.Z.Z.b b z   ; /.m m b i i i i w   ",
"  H.m H.z z b z m z w 1 a.h.h.0.0 w w w w w   ; R./.[.[.Z.Z.Z.R.R.m Z.Z.m Z.b m z i *   ; R.m H.R.i i i   ;                     ",
"                      @ i.h.h.i.3             ; R./.R.R.H.Z.Z.R.R.R.Z.Z.H.z z m z i w   ; R.R.R.F.R.i z   ; ; ; ; ; ; ; ; ; ; ; ",
"R./.~.R.~.R.R.R.R.R.~.I.r.h.h.i./ ~.~.R.R.H.H.  R.~.H.R.Z.H.R.R.R.R.m H.H.m m i i w w   ; H.R.H.R.H.b z   ; R.R.R.R.  /././././.",
"/.~.R.H.R./.~.R.Z.R.R.S t.h.h.i.( ~.H././.m /.  R.R.R.R./.R.H.R.R.R.Z.z b m w w z i w   ; H.H.m b m b i   ; R.~.Z.m   /./.R.~./.",
"/.~.H.H.Z.R.R.Z.m H.H.S e.h.h.i.^ /./.~.H.m m   R.~.H.R./.R.Z.m Z.Z.z m m b w w z w w   ; H.H.i i i z w   ; R.~.~.m   /.R.~.~.~.",
"~.R.H.~.~.H.H.m m m H.A e.h.h.i.^ /.W.~.H.H.z   R.~.R.R.R.Z.R.m m z b b i i i z z i w   ; H.m i z i i w   ; R.Z.m i   /././.~.~.",
"R.Z.H.~./.~.m m H.F.m P.w.h.h.p.B./.H.m H.H.z   R.R.R.H.H.H.H.m z i z z i z z i w w w   ; H.m z i i w w   ; R.i z i   /./.~.~.~.",
"R.R.Z.H.W.{.m H.m m z k %.h.h.a.n.D.!.B B B d o o o o o o o o o o o o o o o o o o o o o & o o X                     ; /./.R.R.H.",
"~.Z.m Z.H.R.H.m m H.z k 3.h.h.g.j.k.l.w.k.5.w.6.7.7.7.7.7.7.7.7.7.7.7.7.7.7.7.7.7.7.7.7.7.7.7.o.% ~.~.~.~.~.~.~.~.; ; /.R.R.H.H.",
"~.R.Z.H.m H.m H.H.C.b Z %.h.h.h.h.h.h.h.h.h.h.h.h.h.h.h.h.h.h.h.h.h.h.h.h.h.h.h.h.h.h.h.h.h.h.7.& ~.[.~.[.R.R.R.H.  ; /.~.H.H.H.",
"~.~.H.Z.~.H.H.H.H.m m C %.h.h.h.h.h.h.h.h.h.h.h.h.h.h.h.h.h.h.h.h.h.h.h.h.h.h.h.h.h.h.h.h.h.h.6.& ~.[.~.[.[.R.H.Z.  ; /./.H.H.H.",
"~.R.Z.m Z.~.~.z m H.C.F 2.h.h.h.h.h.h.h.h.h.h.h.h.h.h.h.h.h.h.h.h.h.h.h.h.h.h.h.h.h.h.h.h.h.h.6.& ~.[.[.[.[.R.Z.m   ; /.~./.R.R.",
"R.H.m Z.R.~.~.R.H.m Z.F 1.h.h.g.k.U q q q q U 7 8 ( ! Q ( `.`.'.( '.`.`.! U Q U U Q U U Q q q 3 $ ~.W.R.[.R.Z.R.z   ; /././.R.R.",
"~.H.~.H.H.R.~.R.z m b C 1.h.h.f.X.  .   .   .   % E./.~.W.W.].].H.E.[.[.J.F.m M m x J.m m u y   ; ~.[.R.R.R.R.Z.z   ; /././.~.~.",
"R.Z.Z.R.R.H.R.R.z b i j <.h.h.f.+.; ; ; ; ; ; ; # W.~./.~.~.~.R.R.R./.R.R.R.C.C.Z.m m i i i z   ; ~.[.[.R.R.Z.m b   ; /.R.R./.~.",
"R.H.Z.R.R.R.H.m b z i j <.h.h.f.@.~.~.~.~.R.R.; ; W.R.R./.~.Z.Z.R./.~.m R.R.m C.Z.Z.b b b i i   ; ~.[.[.H.H.R.R.i   ; /.R.R.~.~.",
"H.Z.H.Z.R.R.m z z i i f <.h.h.f.@.~.~.Z.R.H.Z.  ; ~./.~./.~.C.Z.R.R.R.m R.R.R.b C.Z.i b b b w   ; ~.~.[.H.H.H.R.i   ; /./.H.H.m ",
"H.Z.Z.m Z.Z.m z z b m B <.h.h.f.@.~.R.R.H.Z.H.  ; ~././.R.~.~.~.H.R.m m m R.R.b i z i z b b w   ; ~.~.R.Z.~.R.R.z   ; /.Z.Z.H.H.",
"H.Z.R.H.b m m b z b m Z <.h.h.f.@.~.R.H.Z.b z   ; ~./.R.m R.~.~.R.R.m b m z b b b i w w i w w   ; ~.~.[.Z.~.~.H.z   ; /.Z.Z.m m ",
"F.R.H.Z.C.m z z i r r v <.h.h.f.+.~.~.Z.~.Z.i   ; ~.R.R./.m R.R.H.m b m m z z b b z w w z z w   ; ~.R.[.R.Z.H.H.i   ; /./.m m m ",
"m H.H.Z.m m m m i r r f $.h.h.f.O.~.~.~.b b z   ; ~.m /.m R.R.m m b z m m m z z i i z z z r w   # ~.[.R.R.F.i b z   ; /.R.R.H.H.",
"m Z.Z.m b m m m i i z f $.h.h.f.O.~.~.~.R.i i   ; ~.R./.m R.R.b z z i m m m z i i i i r r r w   ; ~.[.R.H.m H.b i   ; /.R.R.H.Z.",
"m Z.z b m z m m i z i > 2.h.h.f.o.~.H.H.i Z.z   ; ~.R.m R.R.m i i i i z z z z i w w w w w w w   ; ~.[.R.m H.H.m z   ; /.H.R.R.m ",
"m H.m z m z b i z * * g #.h.h.a...~.H.H.~.i z   ;                                               ; R.~.R.m z m m z   ; /.H.Z.Z.m ",
"m Z.H.Z.b m b i i i * k #.h.h.a.{ ~.~.Z.~.Z.i   ; ; ; ; ; ; ; ; ; ; ; ; ; ; ; ; ; ; ; ; ; ; ; ; ; R.~.~.R.m i z w   ; /./.Z.Z.m ",
"m H.Z.m z b m b w w * , 8.h.h.p.' ~.~.Z.Z.i z   ; R.R.R.R.R.R.R.R.R.R.R.R.R.R.R.R.R.R.R.R.R.R.; ; R.~.R./.R.m z w   ; /.H.H.m Z.",
"                      + 9.h.h.i.} ~.~.m m i i   ; R././././././.~.R.R.R.R.R.R.R.H.C.m /.H.R.m   ; R.[.R.R./.Z.i w   ;           ",
"; ; ; ; ; i i b b Z.Z.D y.h.h.i.8 R.~.C.m m i   ; ~./.[.[./.R.R.~.~.[./.H.H.R.R.H.m Z.m Z.H.m   ; R.R.R.R.Z.Z.i w   ; Z.H.Z.Z.  ",
"; H.R.~././././././.~._.d.h.h.0.8 R.R.Z.m m z   ; ~./.[.[.[.~.~.~.~././.m m m m R.R.R.H.H.m z   ; R.[.R.m b i i w   ; H.H.m m   ",
"; R./././././.~.R.~./.E h.h.h.9.6 R.R.H.i z z   ; ~././././.{.{.~.~.~.m m m m m m H.m m b H.z   ; R.~.Z.b z i b w   ; H.m b b   ",
"; R./.~.~.{.{.~./././.W h.h.h.7.& R.H.Z.i i i   ; ~././.~./.{.{.{.m R.H.m m b b b Z.m m m m z   ; R.R.b z b i i w   ; H.b m i   ",
"; /././.~.{.{./.H.H.K.V.h.h.g.#.#               ; R.~./.~././.{.{./.R.R.H.m b b z z i m m m z   ; Z.m m i i i z w   ; Z.m b i   ",
"; /.R.~.R.~.~.~.H.H.P.N.h.h.f.X.; ; ; ; ; ; ; ; ; R.R.~.[.H.H./.R./.R.R.R.R.m m z z m z i r r   ;                   ; Z.b i z   ",
"; /./.~.H.Z.~.~.R.F.T u.h.h.s._ % ^.(.Q.K.K.S.% % K.K.).).S.S.S.Q.K.K.K.N N S.M c s s a a - - X % % % % % % % ; ; ; ; ; ; ; ;   ",
"; /./.H.R./.~.Z.R.E t.h.h.h.a.@.O.m.:.m.;.c.;.[ O.b.m.m.m.b.c.c.m.m.m.b.:.:.:.:.-.-.-.*.*. . .[ O.b.b.b.b.m.B.(./././././././.  ",
"; /./././.R.Z./.A l.h.h.h.h.h.h.h.h.h.h.h.h.h.h.h.h.h.h.h.h.h.h.h.h.h.h.h.h.h.h.h.h.h.h.h.h.h.h.h.h.h.h.h.h.z.!.W.R.Z./.R.R.m   ",
"; /.R./.H.R.R./.!.4.h.h.h.h.h.h.h.h.h.h.h.h.h.h.h.h.h.h.h.h.h.h.h.h.h.h.h.h.h.h.h.h.h.h.h.h.h.h.h.h.h.h.h.h.t.L.W.H.R.R.R.H.m   ",
"; /.~.H.H./.}./.J.U h.h.h.h.h.h.h.h.h.h.h.h.h.h.h.h.h.h.h.h.h.h.h.h.h.h.h.h.h.h.h.h.h.h.h.h.h.h.h.h.h.h.h.h.z.L.~.Z.Z.R.H.m z   ",
"; /.R./.R.}.|.}.F.J 4.u.3.,.>.] o.M.n.x.>.x.>.] o.v.v.M.x.x.>.>.>.>.v.v.x.>.>.>.=.=.&.&.&.| | ] o.n.x.M.x.M.) W.~.R.R.m m m i   ",
"; /.~./.~./.}./.R.m Y.U.t e p . % ^.J.E.E.n p . % J.J.^.A.S.M n n n A.n A.u u A.A.c c u e = = . % E.^.E.A.J.A.R.R.m m m m i z   ",
"; /.R./.~.~.~.Z.C.C.m b r y z   ; /./.~.F.Z.z   ; R.H././.H./.m m Z.b m Z.m i F.H.Z.b b z i z   ; ~.~.R.F.H.H.R.m b z m i i z   ",
"; R./.~.~.R.m m H.R.H.F.m z z   ; /.~.R.Z.Z.m   ; R./.H.R./.R.Z.m b b Z.Z.i i m H.H.m b i i w   ; ~.~.H.R.F.H.R.m b z b m i i   ",
"; /.R./.~.Z.Z.~.m R.R.H.b m i   ; /.R./.m m m   ; R./.R.R.R.H.Z.R.R.b b i b i i m m m z i i w   ; ~.~./.~.Z.~.~.H.m z H.H.i w   ",
"; /.R./.R.H.Z.m z C.R.R.H.b z   ; /./.R.z z z   ; R.R.R.H.H.m Z.R.R.R.b z b b i r r r z w w w   ; /./.~.Z.R.~.~.~.H.m H.H.m w   ",
"; ~.R.Z.Z.Z.R.z r z Z.H.H.b b   ; /.~.R.m b i   ; R.~.R.H.H./.R.m R.R.i i b b z i w w i w w w   ; /.~.R.Z.R.R.~.~.H.m m m m w   ",
"; ~.R.b z Z.z R.m m H.i z i i   ; ~.R.z z z i   ; R.~./.m /./.R.i z z z i i r r r w w r i w w   ; /.~.R./.R.R.m Z.b b m m i w   ",
"; R.R.Z.C.z Z.i z i z b z b z   ; ~.R.Z.b z z   ; R.R.~./.R.m H.i z z z i i * * b b z w r w i   ; /././.H.R.m m b m m b z w z   ",
"; R.H.m m m m m b b b b m m m ; ; R.Z.m m m m ; ; R.R.H.R.H.m m m m m m b z i i m m m m i i b ; ; /.R.R.m H.R.m m m m m b b m   ",
"2 Z.Z.Z.m m m m m m m m m m m 2 2 Z.Z.m m m m 2 2 R.[.Z.Z.Z.Z.Z.m m m m m m m m m m m m m m m 2 2 /.Z.Z.m m m m m m m m m m m ; ",
"I I I I I I I I I I I I I I I I I I I I I I I I I I I I I I I I I I I I I I I I I I I I I I I I I I I I I I I I I I I I I I I 2 "
};
