/* XPM */
static char *result[] = {
/* columns rows colors chars-per-pixel */
"64 64 187 2 ",
"   c gray11",
".  c #382C14",
"X  c #202020",
"o  c #2B2B2B",
"O  c #3E3023",
"+  c #2A2B38",
"@  c #2F3037",
"#  c #323232",
"$  c #373439",
"%  c #383838",
"&  c #403018",
"*  c #47381D",
"=  c #483818",
"-  c #543C1C",
";  c #463824",
":  c #523C26",
">  c #583F2D",
",  c #423835",
"<  c #41383C",
"1  c #4D3C39",
"2  c #573F33",
"3  c #543F3C",
"4  c #5C4020",
"5  c #59402B",
"6  c #6C4824",
"7  c #69472D",
"8  c #744C28",
"9  c #64463D",
"0  c #292D43",
"q  c #272D4E",
"w  c #2B2E4C",
"e  c #363842",
"r  c #3C374D",
"t  c #3D3F4D",
"y  c #2A2E53",
"u  c #2F3451",
"i  c #333850",
"p  c #39375C",
"a  c #393F5B",
"s  c #1F2E7B",
"d  c #2E376A",
"f  c #363B67",
"g  c #2C3374",
"h  c #313775",
"j  c #3A3976",
"k  c #313678",
"l  c #3B3A7A",
"z  c #4C3D4E",
"x  c #523F42",
"c  c #503E49",
"v  c #4A3D56",
"b  c #453D68",
"n  c #423C71",
"m  c #3F4044",
"M  c #3D404C",
"N  c #3E4567",
"B  c #3F4776",
"V  c #3B457B",
"C  c #404040",
"Z  c #47484C",
"A  c #4A4A4A",
"S  c #464750",
"D  c #4A4B54",
"F  c #42465C",
"G  c #545454",
"H  c #51535B",
"J  c gray36",
"K  c #6A4A42",
"L  c #444A63",
"P  c #42486C",
"I  c #534368",
"U  c #4E5166",
"Y  c #4C516A",
"T  c #505260",
"R  c #595B63",
"E  c #424A72",
"W  c #494F71",
"Q  c #4A417C",
"!  c #444D7C",
"~  c #4D557E",
"^  c #5F616E",
"/  c #5B6075",
"(  c #646464",
")  c #61626A",
"_  c #6E6F75",
"`  c #686B7D",
"'  c gray44",
"]  c #7C7C7C",
"[  c #80502C",
"{  c #1E2F84",
"}  c #1A2D8B",
"|  c #1C308F",
" . c #1B2F93",
".. c #1A309B",
"X. c #2A3687",
"o. c #35398D",
"O. c #3A3B88",
"+. c #273B9B",
"@. c #343A93",
"#. c #323A9D",
"$. c #1630AC",
"%. c #1932AA",
"&. c #1A34B7",
"*. c #1D39BA",
"=. c #243AA3",
"-. c #2639A7",
";. c #2837A9",
":. c #233BAC",
">. c #293CAB",
",. c #243BB4",
"<. c #293AB1",
"1. c #2437B9",
"2. c #233BBB",
"3. c #3C4887",
"4. c #34428D",
"5. c #334393",
"6. c #394995",
"7. c #3B4B9D",
"8. c #2E41A1",
"9. c #2C42AC",
"0. c #3145AA",
"q. c #3D4FAD",
"w. c #2C44B3",
"e. c #2741BE",
"r. c #2942BC",
"t. c #4B5484",
"y. c #4E5787",
"u. c #4B5694",
"i. c #44539F",
"p. c #5F668D",
"a. c #5A6393",
"s. c #747786",
"d. c #787A81",
"f. c #616B9F",
"g. c #5D68A5",
"h. c #5563AE",
"j. c #5262B1",
"k. c #747BA4",
"l. c #1533C3",
"z. c #1D37C6",
"x. c #1A38C4",
"c. c #1434CB",
"v. c #1F37C9",
"b. c #1D3CCC",
"n. c #0D33DC",
"m. c #1434D2",
"M. c #1936D3",
"N. c #1739D7",
"B. c #1D3BD3",
"V. c #1335DB",
"C. c #1539DB",
"Z. c #1C3EDD",
"A. c #2137C3",
"S. c #213EC3",
"D. c #263AC8",
"F. c #0C34E5",
"G. c #0733EF",
"H. c #0C35EC",
"J. c #1136E4",
"K. c #1238E2",
"L. c #1A3EE2",
"P. c #133AEC",
"I. c #183FED",
"U. c #0733F6",
"Y. c #0935F4",
"T. c #0D38F4",
"R. c #0433FE",
"E. c #0936F9",
"W. c #113BF3",
"Q. c #2641C4",
"!. c #2A45C9",
"~. c #314BCC",
"^. c #3B53CB",
"/. c #2344DC",
"(. c #2947D8",
"). c #324DD5",
"_. c #1F41E1",
"`. c #1B40EA",
"'. c #1A40F0",
"]. c #2648E6",
"[. c #2748E7",
"{. c #4458C1",
"}. c #8C8C8C",
"|. c #818598",
" X c #989898",
".X c #8B8FA3",
"XX c gray66",
/* pixels */
"] ] ] = - 4 4 8 4 4 4 4 4 4 4 4 4 4 4 4 4 4 - & = 4 4 4 4 - - = G ^ ] ] ' ' ' ' o o o o o o o A ( ' G ( G G A A A A G J J ( ' ] ",
"] ' ' G = - 4 8 4 4 4 4 4 4 4 - 4 4 4 4 4 4 - & = 4 4 4 - = = G ( ] ] ' ] ' ] ] A o o o o o A ( ' G ( G A A J G J ( ( ( ( ( ( ' ",
"' ' ' ( G = - 6 4 4 4 4 4 4 4 4 - - 4 4 4 4 - & = 4 - - = A G ( ( 5 5 4 4 4 m ( ( Z o o o A ( ' G ( G A G J ( ( ( ( ( ( ( ( ( ( ",
"G ' ] _ ( G * 6 4 4 4 4 4 4 4 4 - - 4 4 4 4 = & = - = = G ( ] Z 4 4 = = . = O * ( ( A A A ( ' G ( ( y.^ ( ( J G G A G A G A A A ",
"A G _ p.f.y.p 9 4 4 4 4 4 4 4 4 4 4 4 4 4 - = & = = G ( ] ] A 4 = = = = = = = = A ] ( ( ( ' G ( J ~ B.P.!.~ J J J ( J J J J J J ",
"A A Y _.R.R.R.j 5 4 4 4 4 - 4 4 4 4 4 4 - & & = G ( d.d.( 4 4 = = = = = . = = . . ( }.XX' G ( G A 6.P.R.b.N G A A A A A A A A A ",
"A A L Z.R.R.R.h : 4 4 4 4 4 4 4 4 4 4 - & & A G ( ] ] 5 4 = = = = = = = . * = . . ( XX] G ( J A A 8.H.R.9.F A A A A G A A G G A ",
"G A L N.R.R.R.w.; - 4 4 4 4 4 4 4 - - & = G ( ( ] ( 4 4 = = = = = = = = * . = . . (  X] ( G A A A E N.R.Y.3.A A G A A A A A A A ",
"A A L K.R.R.R.`.! = - 4 4 4 4 - - & & G ( ( ] ] A 4 - = = = = = = & = = & . = . . (  X( G A A A G M r.U.S.W A A A A A A A A A A ",
"A A P H.R.R.R.E.(.W = - - - - & & G ( ] ] ] ( 4 4 - = = = = = = = . = = & . & . . ( }.( G A G A Z B C.R.C.V A A A A A A A G G A ",
"G A N J.R.R.R.R.U.!.W & & & & A G ( ] ] ( A 4 - - = = = = = = = = = = = = . & . C ( }.( J A A A A B C.R.U.4.A G G A A G G A A A ",
"A A L C.R.R.R.R.R.E.!.Y G G G G ( ] ] ( 4 4 - = = = - = = = = = = . = = = . . . A ' ] ( J G A A Z B C.R.r.L A A A A A A A A A A ",
"A A L Z.R.R.R.R.R.R.Y.r./ '  X X}.' ( 4 - - = - - = = = = = = = = . = = = . . . J ' }.( G A A A A D S.R.T.4.D A A A Z A A Z A A ",
"G A L C.R.R.R.Y.R.R.R.Y.,./  X}.}.( 4 = - - = - - = = = = = = = = . = = = . . . ( ' ] ( G A G A A D r.T.K.V A A A A A Z A Z A A ",
"A A F n.R.R.R.Q.H.R.R.R.Y.:.` }.] 4 - = 4 = = = = = = = = = = = = . = = = . . C ( ] ] ( G A G A G A 9.U.C.4.D A A A Z Z A A A G ",
"A A i Z.R.R.R.7.0.Y.R.R.R.G.9.^ G 4 = 4 - = = = = = = = = = = = & . = = = . . A ' ] ] ( G A A A A A *.R.R.9.L G A A M 5 A A A A ",
"A % / _.R.R.R.6.Y 0.T.R.R.R.H.8.^ 4 = 4 = = - = = = = = = = = = = . = = . . . G ] ] ] G A G A A A G V C.F.4.D A A A A A A A A % ",
"% ( / C.R.R.R.6.H U w.Y.R.R.R.P.q.5 = - = = = = = = = = = = = = . . = = O . . ( 6 4 ( G A A A A A A 9.Y.S.B G A G A A A G A % C ",
"( ( F m.R.R.R.i.H G Y %.Y.R.R.R.P.O.: = = = = = = = = = = = = = . . = . . . J 6 4 4 G ( 5 D A A A A 9.G.E.4.A A A A A A C % C C ",
"( A 5 C.R.R.R.h.S G m M *.Y.R.R.R.'.k 5 = = = = = = = = = = = & . = . . = ( 6 4 4 4 = ( ^ m A A A A 9.G.R.5.D A A C % % # % C ( ",
"A - 9 m.R.R.R.i.' Z C G a r.E.R.R.R.F.j * = = = = = = = = = . . . . . A ( ] = = = = = ' ' ( C C C A 2.R.C.V m C % # % C % G ( ( ",
"- - % m.R.R.R.4.] ( A G t W Q.R.R.R.E.V.h = = = = = = = = = . . . . A ( ] ] ] ( ( ( ( }.}.( ( C % % %.Y.R.$.u # % C C % G ( ] A ",
"- = , m.R.R.R.g ^ ' Z G 5 T W S.R.R.R.R.V.f = = = = = = = . . . C J ( G G G G G G G ] }. X X' ( G % +.G.R.x.N C C C % G ( ] A - ",
"= = , m.R.R.R.g ^ ] ( Z m D G N *.R.R.R.R.c.f = = = = = . . C G ( ( G A C % C C C C G ]  X X}.] ( G ..T.R.*.N % % % G ( ] A - - ",
"= = , m.R.R.R.h S ] ] ( C G A Z d /.R.R.R.R.c.p = = & . . G ( ] ( G A C C % % C C C C G ] }.}.' ] ( 3.C.G.X.e % % G ( ] ( - 4 = ",
"= = , m.R.R.R.g O ( ] ' % Z A A $ a.(.R.R.R.R.l.y . . . C ( ] ( G A C C C % C % C C % C ' ] ' G G ] i.e.l.g % % G ( ] ( A - = = ",
"= - 3 m.R.R.R.h O G ' ] ( % % % _ ] f./.R.R.R.R.*.y x A J ] G G A C A C C % C % M m % A ^ ' ( A A G ^.T.E.Q.W G ( ] ( A - = = = ",
"= - 1 m.R.R.R.h O A ] }.' ( ( ' ] G 7 I N.R.R.R.R.b.~ ] ] G G Z C C A A C % C C @ 5 # G ( ' G A A A 9.T.R.{.|.}.] ' A - = = = = ",
"= = , m.R.R.R.k O A ] ' }.' ' ( 6 6 4 5 b m.R.R.R.E.).p.G G A C C C C C C # C C % % # G ( ( Z A A A Z !.).k.}.] ' ( - = = = = = ",
"= = , m.R.R.R.k O Z ] ' ' ' ' 6 4 4 4 4 5 n C.R.R.R.E.S.Y Z C C C A C C C % C C % % A ( ' G G A A C N b.Y.~.p.( J G - = = - - - ",
"= = , m.R.R.R.k O G ' }.' ' ' ( 4 4 4 4 4 5 h `.R.R.R.E.r.M m m C C C C C % C C % # G ' ] ] ( ( ( ( i._.R.).p.J G J - = = - - - ",
"= = , c.R.R.R.g O G ] ] ( G ( ] ] 4 4 4 - = ; j.I.R.R.R.U.&.M M C C C C C # C C % o ( G 8 8 8 8 8 K S.R.R.z.S 8 J ( - = = - - - ",
"= = % m.R.R.R.g m ( ] ( G J G ^ ] ] - = = = ( d.7.J.R.R.R.U.%.M C C C C C o m C % G ' 6 6 6 4 4 4 5 b.R.U.X.> 4 4 ] - = = = = = ",
"= = , b.R.R.R.5.( ( ( G J G G G ( ] ] ( G G ] ( U 8.G.R.R.R.Y.9.M C C C % # C % o G ( 6 4 6 4 4 4 4 @.H.R.;.3 - - ( - = = - = = ",
"= = , m.R.R.R.i.( ] G J G G G G G ( ] }.] }.] G Z M =.G.R.R.R.G...M C C % o C % o ( G [ 4 6 4 4 - 4 o.H.Y.o.> > - ( - = = = = = ",
"= = % m.R.R.R.i._ ( G J G G G G G G ( ] }.}.}.G C C M 9.Y.R.R.R.H.8.M C % # C # ^ ' 9 [ 4 6 4 4 4 > 2.R.>.< - - - ( & = = = = = ",
"= = , m.R.R.R.h.d.G J G G G G G G G G ( }. X XG C C C N w.'.R.R.R.F.+.M # # % C ' ' 6 [ 4 6 4 4 4 4 2.R.v.r - 6 - ( A & = = = = ",
"= = # V.R.R.R.h.^ G J G G G G G G G G G (  X X( C C C A U w.U.R.R.R.F.4.@ # % G ] ( 6 [ 4 6 4 4 4 4 #.Y.R.o.2 - - ( ( A & = = = ",
"= & F Z.R.R.'.i.H J G G J G G G G G A G G ^ }._ % M C A G N ,.U.R.R.R.F.{ # # ^ ] G 6 [ 4 4 4 4 4 4 n V.R.;.x 6 - ( ] ( A & = = ",
"& A / L.R.R.R.i.H G G G G G G G G G G A G G }.}.G % % 5 G Z N *.R.R.R.R.n.s A ' ' 6 4 [ 4 6 4 4 4 5 #.A.z.n > - = ( ] ] ( A & & ",
"A ( ) [.R.R.R.6.H G G G J G G G G G G m G G ( ' _ # % % G C A N *.R.R.R.R.n.6.] ( 6 4 8 6 4 4 4 4 x A.U.Y.O.> 4 = ( ] ] ] ( A A ",
"( ( .X[.R.R.R.6.H G G G J G G G G G G M m G G ( ^ 5 # # # C A m N &.R.R.R.R.N.g.G 6 6 [ 8 4 4 4 4 2 A.R.R.1.c 4 = ( o o % G ( ( ",
"( ] .X[.R.R.R.6.H J J G G G G J G G G 5 m G G G ( G A # # % m A t N x.R.R.R.R./.I 5 4 8 [ 4 4 4 4 4 ;.E.R.>.x 4 = ( o o o o $ G ",
"o A |.].R.R.R.6.R J J G G G G G G G G A C G G G G A G ( G # # Z m e N c.R.R.R.R.b.v 4 6 [ 4 4 4 4 4 j J.R.#.> 4 = ( o o o o   o ",
"o X F ].R.R.R.6.R J J G G G G G G A G m C A G G A A ( ( G # # % # m m d c.R.R.R.U.z.v > 8 - 4 4 4 c D.R.1.z : 4 = ( o o o o X o ",
"o X F _.R.R.R.6.R J G G G G G G G G G A C A G G A % ( }.}.G o % # C m @ V /.R.R.R.E.2.v 6 8 > - 4 4 #.H.J.b > 4 = ( o o o o X o ",
"X A / Z.R.R.R.6.G G G J G G G G G A G A C A G A % A ] }.}.] G # # % % # H g._.R.R.R.U.1.c 6 - 6 4 4 1.U.R.l 6 - = ( # o o X # o ",
"Z ( / L.R.R.R.7.J G G G G G G G G A G A # A m % A G ] A = A ] G # # # o _ d.u.n.R.R.R.R.1.c 8 - 4 2 A.R.*.z - = A ( o o o X o o ",
"( ' ` L.R.R.R.7.R G G G G G G G G C G M % m % 5 H ( A - = & A ] ( G G ( ] ( e { n.R.R.R.E.:.c 4 4 4 <.U.v.z = Z ( (   X X X X X ",
"] ] ` _.R.R.R.@.H G G G G G G G G A G 5 # % A G ) m - = = & = . A ] ] ] ( % o @ s F.R.R.R.E.-.1 4 > #.Y.R.k Z ( ' ] ] Z Z A C A ",
"] _ s.[.R.R.R.5.Z G G G G G G G A A G C # Z G ^ A - = = = & = & = C ] ] A % o o + } F.R.R.R.Y.w.1 j V.R.E.4.( G G G G G G ( ] ] ",
"] G K M.R.R.R.i.S % G G G G G G A C A # Z G ( A - = = = = & = . = & ] ( $ o o o o + } G.R.R.R.Y.>.@.J.H.o.) ( G G G G G G A ( ] ",
"6 6 3 M.R.R.R.h.( A % A G G G Z A Z % A G ( A - * = = = = . = = = & ] % o o o o o o +  .G.R.R.R.W.D.H.E.q.s.G G G A G G G A ( ] ",
"4 - 3 M.R.R.R.Q H J A % Z G A A % # A ( 9 A - = = = = = = O = . & A ( % o o o X X o o 0 ..U.R.R.R.T.L.E.I.u.D A G G G G A A ( ] ",
"4 - 3 M.R.R.R.l 7 = ( A % A A % A G ( Z = 4 - = = = = = = = O = A ( % o o o o o X X o o 0 ..G.R.R.R.R.R.W.t.S A G G G G A A ( 6 ",
"4 4 3 M.R.R.R.j 5 = 4 - A % # A G ( Z - 4 - = = = = = . = . = . G % % o o o o o o X   o o + %.U.R.R.R.E._.! G G G G G A A A ( 6 ",
"4 4 1 M.R.R.R.j 4 * 4 4 - A A G ( A - - - - = = = = = & = & & A ( % o o o o o o o o   X o o q $.U.R.R.E.P.W G G G G G A C G 6 4 ",
"4 - 1 M.R.R.R.j 4 * - = = G G ( A - = - 4 = = = = = = & = & A ( A % o o o o o o o o   X X o o q $.R.R.E.^.Y G G G G A A A ( 6 4 ",
"4 4 3 M.R.R.R.k : . = = G ( ( A - = = - 4 = - = = = = & & & G ( % % o o X o o o o o X X X   o o q $.H.&.y.( J G G A A A G 6 4 4 ",
"4 4 3 M.R.R.R.k ; O = G ] ] ] A = = = - 4 = = = = = = & . A ( % o % o o o o o o o o o X X o   o + q | w % ( A A A A A A G 6 4 4 ",
"4 4 3 A.H.J.H.d O . G ] ] ] ] G = = = - - = = = = = = & A ( A % o % o o o o o o o o o X X X o X o o o o o X ( A A G G A 6 4 4 4 ",
"4 4 4 3 3 A < ; . G ] G % G ] ( A = = - 4 = = = = = = & G ( % o o % o o o o o o o o o o X   X o   o o o o X G ( G G A ( 6 4 4 4 ",
"4 4 4 4 4 - = * G ] G C m m G ] G = = - 4 = = = = = & A ( % o o o % o o o o o o o o o o X   X o X X o o o X G ] A A ( 6 4 4 4 4 ",
"4 4 4 4 - & . G ] ] C C C M 5 G ( = = - = = = = = & A G ( o o o o % o o o o o o o o o o X     o o X X o o X G ] ] ( ( 6 4 4 4 4 "
};
