/* XPM */
static char *_c0c4d7a0ae84ab9dc8694b83ccd8b9fzHnv9oQCSP9MkILa[] = {
/* columns rows colors chars-per-pixel */
"64 64 210 2 ",
"   c #202020",
".  c #2C2C2C",
"X  c #2E302D",
"o  c #33372F",
"O  c #323B29",
"+  c gray20",
"@  c #363C31",
"#  c #383838",
"$  c #400000",
"%  c #4C0000",
"&  c #580000",
"*  c #5D0C02",
"=  c #640000",
"-  c #680B02",
";  c #700000",
":  c #7C0000",
">  c #730D02",
",  c #7E0B02",
"<  c #671805",
"1  c #7F1204",
"2  c #7B1B07",
"3  c #55250C",
"4  c #5D3211",
"5  c #6D260B",
"6  c #77260C",
"7  c #653B15",
"8  c #3A492E",
"9  c #3A4233",
"0  c #3F4A35",
"q  c #5B4319",
"w  c #6C451B",
"e  c #654B1D",
"r  c #7D4D1E",
"t  c #454D3E",
"y  c #47573A",
"u  c #695623",
"i  c #755422",
"p  c #7C5522",
"a  c #755A25",
"s  c #55713C",
"d  c #7B642A",
"f  c #77682C",
"g  c #7D7331",
"h  c #787B35",
"j  c gray25",
"k  c #484848",
"l  c #4D5745",
"z  c #4D5B40",
"x  c #4E544A",
"c  c #50574A",
"v  c #535B4B",
"b  c #545454",
"n  c #565855",
"m  c #595E55",
"M  c gray36",
"N  c #546347",
"B  c #566B43",
"V  c #56624C",
"C  c #5C6C4E",
"Z  c #5A7345",
"A  c #5E7E42",
"S  c #5E714F",
"D  c #5D6556",
"F  c #60764D",
"G  c #616E56",
"H  c #656F5D",
"J  c #647654",
"K  c #667C52",
"L  c #68785A",
"P  c #646464",
"I  c #6D7863",
"U  c #880000",
"Y  c #890D02",
"T  c #980000",
"R  c #980A02",
"E  c #881B07",
"W  c #981C07",
"Q  c #A40000",
"!  c #A30A02",
"~  c #AF0B02",
"^  c #B00000",
"/  c #BC0000",
"(  c #B90F03",
")  c #A31404",
"_  c #A31906",
"`  c #A21E08",
"'  c #B81706",
"]  c #88250B",
"[  c #812B0E",
"{  c #822F10",
"}  c #8C3512",
"|  c #863D17",
" . c #983A15",
".. c #A2230A",
"X. c #A7270C",
"o. c #B7220A",
"O. c #A13613",
"+. c #C60401",
"@. c #C80000",
"#. c #D40000",
"$. c #D00B02",
"%. c #CF1003",
"&. c #E00000",
"*. c #EC0000",
"=. c #E31705",
"-. c #CB220A",
";. c #C73211",
":. c #844119",
">. c #8C471C",
",. c #9C4A1D",
"<. c #A0451B",
"1. c #A04D1F",
"2. c #AC4C1E",
"3. c #805C26",
"4. c #8E5A25",
"5. c #9B5623",
"6. c #9F5C25",
"7. c #AE5A25",
"8. c #B05020",
"9. c #BE5321",
"0. c #816128",
"q. c #84682C",
"w. c #8F6C2D",
"e. c #9E6027",
"r. c #9E652A",
"t. c #9D6C2D",
"y. c #8D7331",
"u. c #857934",
"i. c #947531",
"p. c #9D7331",
"a. c #977934",
"s. c #9C7E36",
"d. c #AC6329",
"f. c #AB6A2C",
"g. c #B9652A",
"h. c #B6702F",
"j. c #A97A34",
"k. c #B47833",
"l. c #BF7934",
"z. c #C04D1F",
"x. c #CA5E26",
"c. c #C46C2D",
"v. c #C27130",
"b. c #7A8C3D",
"n. c #628346",
"m. c #67884A",
"M. c #6D944B",
"N. c #799847",
"B. c #70954F",
"V. c #698254",
"C. c #6D8A53",
"Z. c #729455",
"A. c #759A55",
"S. c #75965A",
"D. c #77A54E",
"F. c #77A251",
"G. c #79A452",
"H. c #7DAB54",
"J. c #7DA55A",
"K. c #7EA958",
"L. c #8C853A",
"P. c #86893B",
"I. c #94863A",
"U. c #98873A",
"Y. c #9B8C3D",
"T. c #86903F",
"R. c #8D903F",
"E. c #9A913F",
"W. c #A8893C",
"Q. c #BA8439",
"!. c #AA913F",
"~. c #8C9541",
"^. c #869843",
"/. c #959441",
"(. c #9B9541",
"). c #9A9D45",
"_. c #A89441",
"`. c #8AA247",
"'. c #8BA649",
"]. c #8CAD4D",
"[. c #95A247",
"{. c #92A549",
"}. c #99A649",
"|. c #93AB4C",
" X c #9CAC4C",
".X c #8BB14F",
"XX c #93B14F",
"oX c #9BB14F",
"OX c #82AE5B",
"+X c #82B356",
"@X c #8DB651",
"#X c #8EBB54",
"$X c #84B35A",
"%X c #86B958",
"&X c #89BE5A",
"*X c #95B651",
"=X c #9AB651",
"-X c #92BC54",
";X c #99BB54",
":X c #A5A74A",
">X c #A1B953",
",X c #8FC257",
"<X c #8DC35D",
"1X c #94C156",
"2X c #9AC257",
"3X c #94C559",
"4X c #99C65A",
"5X c #94CC5C",
"6X c #98CD5C",
"7X c #96D35F",
/* pixels */
"# # # # # # # # # # # # # # # # # # # # # # # # # # # # # # # # # # # # # # # # # # # # # # # # # # # # # # # # # # # # # # # # ",
"b # b k k k k k b k k k k k k b k # k k k k k k k b b b b b b k k k k k k k k k b b b b b b b k k k k # # # k k b b k k k k k # ",
"# *.*.#.#.#.#.#.#.#.#.#.Q k k b *.*.#.#.#.#.#.#.#.#.#.#.#.#.#.#.#.#.#.#.Q k # b *.*.*.*.&.&.&.&.&.&.#.#.#.#.#.@.@.@.@./ / / Q k ",
"k *.@.^ ^ #.U Q #.U @.Q = . k b *./ U / U / U / : / T / T / : / : / @.Q ; . k # #.Q @.^ @.^ ^ @.; @.: @.^ @.U ^ Q : @.T @.Q : . ",
"k #.Q : Q U Q T ; Q U ; = . k b #./ U U Q U ; Q Q ; T Q Q ; T Q ; Q T ; & . k b #.Q Q : = Q U ; U Q : U Q Q U Q : U Q & Q ; = . ",
"k #.: Q Q ; T Q Q ; Q & $ . k b #.U / Q U Q ; Q U Q ; Q ; U : Q ; T : ; & . k k #.; Q = U Q = Q ; Q : Q U Q = Q T : Q : Q ; % . ",
"k @.Q : U T : Q ; U Q ; $ . k b / / U Q U U T Q ; U ; Q U ; T : U ; Q ; $ . # k / ; Q : Q U = Q ; ; Q Q ; Q U Q Q : Q & Q U % . ",
"k / : Q Q ; Q T ; T ; & $ . k k / @.U Q ; Q ; Q ; Q ; T U ; : Q ; T : ; & . # k / T Q = U Q : U ; U : Q U Q = Q : U Q : Q ; $ . ",
"k / Q ; U & ; : & ; U ; $ . # b T T ; ; % U ; ; U ; % ; U ; U ; % U ; ; $ . # k / ; ; & ; ; % U % ; & U % ; % U = % ; U ; U $ . ",
"k : = = = $ $ $ $ $ $ $ $ . # k : = = & & & & & & & & & $ $ $ $ $ $ $ $ $ . # k U = = = = = = = = = = & & & & & & & & & $ $ $ . ",
"k k . . . . . . . .       . # b k . . . . .           . .         . . . . . k b # . . . . . . . . . . .           . . . . . . . ",
"b # # # t C J K V # # # # # k # k k k k k k k # # # b k k k # # k k k k k k b # k b b b b M P P M b b k k j # j b # b k k k b # ",
"*.#.#.-.j. XoX X7./ / / / / / Q k b k *.*.#.#.#.#.#.#.@.@.@.@.@.@.@./ / / / / / / / / / / / / / / / / / Q k l V.x.v.9.$.#.#.#.#.",
"^ U U X.E.7X7X6Xi.U ^ = ^ U Q $ # k b *.; ^ @.: / = U / U U @.T Q U : U Q U Q U Q : @.= @.U T / @.T @.Q $ # K %X>X2XR.X.U ^ U ^ ",
"U Q U _ L.7X7X7Xs.U = U Q Q ; $ . k k #.^ ; Q : Q Q U Q = Q ; = U Q : Q : Q = Q Q U = Q U Q ; U Q ; Q ; $ # V.5X7X7X{.O.U : Q T ",
"; Q Q Y a.7X7X7XI.Y T = Q U ; $ . # k #.; Q U T U U = U U ; Q U = Q U : = : U U Q & U : Q ; Q ; Q Q ; ; $ . F <X7X7X X<.Q : Q : ",
"Q U U Q w.7X7X7X~.` T = Q = ; $ . # k #.; Q Q : Q = U Q = ; Q = U Q : U : Q = Q U & Q = Q ; U ; Q ; Q ; $ . B &X7X7X*X5.: Q T : ",
"; Q = Q 0.6X7X7X^.X.= U Q Q ; $ . k b #.^ & Q : Q U = U & U ; = ! | y.f [ Q = U & U Q = U Q ; U Q ; Q ; $   N $X7X7X;X6.& Q : U ",
"; ^ = ; u 1X7X7X'. .; & T ; ; $ . k b ^ Q ; U & ; T ; U = ; U & r }.3X1XT.} ; U U & T ; ; U % ; T ; U ; $   N $X7X7X3Xq.& ; T ; ",
"$ % % % e @X7X7X.Xe % % % $ $ $ # k b Q = = = = = = = = = = = 5 T.7X7X7X5Xg * & & & & & & & & & & & & $ $   V F.7X7X5Xg $ $ = $ ",
". . .   y +X7X7X&Xs . . .     . # k # k # + . . . . . . + + # Z &X7X7X7X7XD.8     . . .         . . . . . # v J.7X7X7Xm.. . . . ",
"b b k # z OX7X7X5Xm.k k # # # # k k b k k k j # j # j # j k k C.7X7X7X7X7X$XB # j j k k b j # # j k k k b k D B.7X7X7XA.n k k k ",
"b *.*.#.-.W.7X7X7Xk./ / / / / / / / / / / / / / / / / Q k b m l.7X7X7X7X7X>X9.#.#.#.#./ / / / / / / / / / / ( j.7X7X7XW./ / Q k ",
"b *.U ^ ( u.7X7X7XL.~ U ^ U ^ @.U ^ U ^ U / ^ = ^ @.; $ # k D Q.7X7X7X7X7X-Xe.^ U ^ T ^ : = Q U ; U Q : U Q R i.7X7X7XY.* Q $ . ",
"# *.^ U Q t.7X7X7X/...Q U T U Q U = Q ; Q U = U Q ; ^ $ . k H W.7X7X7X7X7X3Xw.; T U = Q = U Q = Q ; Q : Q U ! g 7X7X7XY.1 ; $ . ",
"k / = Q Q 3.3X7X7X`.O.; Q U T Q = U Q ; U Q U = : Q ; $ . b I !.7X7X7X7X7X5Xt.; T Q : Q : Q U = Q ; ; Q T ; T w.7X7X7XY.< ; $ . ",
"k / ^ U Q e =X7X7XXX1.U ; : Q : U = : Q = Q U = Q ; & $ . b H _.7X7X7X7X7X6Xy.T ; Q = U = U Q : U ; U : Q U Q f 7X7X7XE.E ; $ . ",
"b / ; = Q 7 {.7X7X-Xe.& Q = Q U = U Q U = Q = U : : ^ $ . k G _.7X7X7X7X7X6Xp.U ; Q = Q & ; ; % Q % Q & Q % Q t.7X7X7X~.] ; $ . ",
"k @.Q = ; 6 ~.7X7X5Xu.; U = U ; ; U ; ; = ; T ; T ; ; $ . # G !.7X7X7X7X7X6Xu.; ; ; = U ; U % Q & ; Q % ; U % r.7X7X7X(.6 ; $ . ",
"k Q T = = < P.7X7X7XP.= = = = = = % % % % % % % % % $ $ . # D Y.7X7X7X7X7X6Xg = = = = = = = & & & & & & & & & f 7X7X7X^.] & $ . ",
"k k # . . o m.7X7X7XB.9 . . . . . . . . # # # . . . . . . k v A.7X7X7X7X7X5Xn..           . # # # .       . . A 7X7X7XF.0 . . . ",
"b b b b b k C.7X7X7XH.z k b P P b b b k k k j j # # j # # j m Z.7X7X7X7X7X5XS.k j # j # j k b b k k j # j k k C.7X7X7XK.V k b # ",
"/ / / / / / 7.2X7X7X}.S # b #.#.#.#.#.#.#.#./ / / / / / / / / f.7X7X7X7X7X4Xf.Q k b b @.*.#.#.#.#.#.#.#.#.#./ f.7X7X7X_.o./ / / ",
"Q ^ Q ^ T @.2.=X7X7X.XZ k # #.Q = Q ; Q Q = Q U Q Q ; Q U = Q 6.3X7X7X7X7X1Xr.$ # k b #.Q : Q ; Q Q = Q : U : t.7X7X7XY.2 Q ; Q ",
"Q : U Q T Q | }.7X7X#XZ k b #.= Q : U Q : Q T ; Q U U ; U U Q >.@X7X7X7X7X-X6.$ # b b #.Q & Q ; Q U = Q U Q , i.7X7X7XU.1 T U ; ",
"U : Q T : Q [ /.7X7X5Xn.k # #.= Q Q : T Q ; Q ; Q U Q & Q % U } ).7X7X7X7XXX,.$ # b P #.Q : Q ; Q U Q U Q Q 1 s.7X7X7XU.R : Q ; ",
"Q U : Q T Q W L.7X7X7XB.k b #.T = Q : Q : & T U U U ; U Q = Q E P.7X7X7X7X}.| $ # b P #.: Q Q ; Q = Q Q : : ..R.7X7X7Xa.U : ; U ",
"Q U : Q : Q , i.7X7X7XF.v k #.= Q : & T Q ; U U Q U Q ; U % = R g 7X7X7X7X~...$ # k b @.Q : Q Q ; Q U U : Q { ).7X7X5Xt.: U Q ; ",
"; ; U T ; ; T 0.5X7X7XH.C k T = Q Q & Q : ; Q ; Q = Q & U = Q U a 3X7X7X6Xu., $ . k b @.Q & Q ; Q Q U Q U Q :. X7X7X-X5.: Q Q ; ",
"$ $ % % % % % e #X7X7X&XV.k Q = = = = = = = = = & & & & & & & & a 3X7X7X6Xg $ $ . k k Q = = = = = = = = = = i 1X7X7X].w & & & $ ",
". . . . . . . y H.7X7X5XA.m k .         . . # # # .           9 M.7X7X7X7XM.@ . # k k k . . . . # # k # . o A 7X7X7XG.t . . . . ",
"b k b # k # # x A.7X7X7X$XF k # # # k k k k k b b k k # # # b K &X7X7X7X7X+XC # k k b k b # b k b M P b k V J.7X7X7XJ.x b # b # ",
"# *.#.#.#.#.#.#.z.=X7X7X6XW.' / / / / / / / / / / / / / / / o.Y.7X7X7X7X7X2Xg.#.#.#.#.#.#./ / / / / / / / 8.=X7X7X2Xd./ / / Q k ",
"b #.Q U U Q = Q _ L.7X7X7X;Xq.Y Q = Q : Q U Q = Q = Q Q : > t.,X7X7X7X7X7X7XT...= Q & Q ; Q & Q U & T U 2 U.7X7X7X{. .; U Q $ . ",
"k #.Q = Q U = Q U ,.|.7X7X7X@Xe.R = Q & U T U = Q : Q : ! 3.*X7X7X7X7X6X7X7X*X4.= : & U & T : Q & Q = Q 3.-X7X7X6Xu.R Q = U $ . ",
"k #.U = Q = U ; = ! d 2X7X7X7X=Xd R U U & : Q % T & U - 4.XX7X7X7X<XJ.:X7X7X6X^.] Q : & Q : & T Q & ! p ].7X7X7X|.<.; U = Q $ . ",
"# #.Q U Q U = Q U : W s.5X7X7X7X;Xu.X.& U Q & T Q : _ t.=X7X7X7X5XB.V h.5X7X7X1Xg ! & Q ; T : : & E d oX7X7X7X3Xi., ; Q U Q $ . ",
"b #.Q = U Q = Q = Q = ..P.5X7X7X7X3X).f } , Q : E i /.-X7X7X7X5XM.y b ;.).7X7X7X#Xq.* Q & Q & R w Y.-X7X7X7X6XR...: T U = ; $ . ",
"# @.Q = Q = U ; U T : Q ] I.3X7X7X7X6X1X].^.E.N.[.*X6X7X7X7X5Xb.8 # b +.3.;X7X7X7X;Xh :...[ i U..X5X7X7X7X6X~.O.: T ; Q = Q $ . ",
"b Q = = = = = = = = = % % 3 h #X7X7X7X7X7X7X7X7X7X7X7X7X7X,Xh 3 X k b Q < g 3X7X7X7X3X].`.`.@X5X7X7X7X7X3Xb.4 % % % % % % $ $ . ",
"# k . . . . . . . . . . # # t B D.5X7X7X7X7X7X7X7X7X7X7X+Xs O . . k # k . 0 M.5X7X7X7X7X7X7X7X7X7X7X7X%Xn.0 X       . . . . . . ",
"b # b # b k b k k k k b P P b k G n.OX<X7X7X7X7X7X5X$XZ.J x k # k k b # b k V Z.<X7X7X7X7X7X7X7X7X<XA.S x k # +     + # k k b k ",
"#.#.#.#.#./ / / / / / / / / / / / ! V L K c.l.k.g.z.;.%.#.#.#./ / / / / / / / ' 2.W.=X6X7X7X4X$XC.L =.#.#.#.#.#./ / / / / / / / ",
": Q & Q Q = T = Q : @.: Q = Q : Q $ . k k $.) ) ! Q = Q % Q : Q = Q = Q T Q = Q = ` 7 1.p i q z c b #.Q = U Q & Q ; Q ; Q = Q ; ",
"Q : : Q : Q = T : = Q & : = U = U $ . k k #.: Q ; Q = ; % : T : Q U = U T = : U ; U & Q = Q $ + k b #.= Q & Q ; Q ; U Q ; Q U % ",
"Q : & : Q = T = : Q : & Q U = T : $ . k j #.: : ; Q = : : Q & Q % Q Q = Q = Q = U & U U = ; $ . k b #.= Q ; ; Q Q U ; U ; = ; U ",
": T & T = = Q = Q : Q & : ; = Q = $ . k j #.Q % ; Q = Q % Q : T = Q = U : = Q = Q U & ; T = $ . k b #.Q = & Q U ; ; Q ; Q = ; Q ",
"= Q : Q = Q = U Q = Q : & U Q : U $ . k j #.% Q Q = Q : ; U & : % Q = Q = : : = U ; & U ; = $ . k k #.= Q U Q ; Q U ; ; & Q ; Q ",
"= Q : : = T T = T = : & Q = Q = T $ . k k #.% Q ; Q = : : U % T = U % Q : = Q U = Q & Q & U $ . # k #.= Q & ; & Q ; Q ; & = Q % ",
": T & Q = = U = : : Q & Q = ; U : $ . k b @.Q % ; Q = Q % U = Q = Q ; = Q = : Q = U ; U = U $ . # k @.= = & Q & Q ; Q ; Q = Q ; ",
"% % % % % % % % % % % % % % % % $ $ . k k Q $ $ $ $ $ % % % % % % % % % % % % % % % % % % $ $   k b Q $ $ % % % % % % % % % % % ",
". . . . . . . . . . . . . . . . . . . k b k # + + . . . . . . . . . . . . . .           .       # k k . . . . . .           . . ",
"# b # b # # # k k k k k b b # k k k k b b b b b k k k b k k k b k k # k k k j # # j # # j k j # j b k k # b k k k k j # j k k k ",
"b b b b b b b b b b b b b b b b b b b b b b b b b b b b b b b b b b b b b b b b b b b b b b b b b b b b b b b b b b b b b b b b "
};
